<svg xmlns="http://www.w3.org/2000/svg" xml:space="preserve" fill="#fff" stroke="#fff" viewBox="0 0 496 496">
  <path d="M496 0H0v368h167.128c-2.832 7.824-2.616 16.504.832 24.128L159.304 496h20.008L200 475.312 220.688 496H240v-65.144c2.576.672 5.224 1.144 8 1.144s5.424-.472 8-1.136V496h19.312L296 475.312 316.688 496h20.008l-8.664-103.872c3.448-7.624 3.664-16.304.824-24.128H496zM224 476.688l-24-24-22.936 22.936 5.68-68.216c10.696 5.368 23.768 4.472 33.568-2.912.888 6.296 3.68 11.944 7.688 16.512zm72-24-24 24v-55.68c4-4.568 6.8-10.216 7.688-16.512 9.8 7.368 22.864 8.288 33.568 2.904l5.68 68.216zM320 344c-.92 0-1.808-.144-2.688-.288l-6.696-1.152-2.216 6.424a65 65 0 0 1-2.864 6.896l-2.952 6.104 5.536 3.912c.736.52 1.472 1.064 2.112 1.696 6.24 6.24 6.24 16.392 0 22.632-6.232 6.232-16.392 6.24-22.608.024-.656-.664-1.192-1.4-1.72-2.136l-3.912-5.536-6.104 2.952a61 61 0 0 1-6.896 2.864l-6.424 2.216 1.152 6.696c.136.888.28 1.776.28 2.696 0 8.824-7.176 16-16 16s-16-7.176-16-16c0-.92.144-1.808.288-2.688l1.152-6.696-6.424-2.216a65 65 0 0 1-6.896-2.864l-6.104-2.952-3.912 5.536c-.52.736-1.064 1.472-1.696 2.112-6.24 6.24-16.408 6.224-22.632 0-6.24-6.24-6.24-16.392-.024-22.608.664-.656 1.4-1.192 2.136-1.72l5.536-3.912-2.952-6.104a61 61 0 0 1-2.864-6.896l-2.216-6.424-6.696 1.152c-.888.136-1.776.28-2.696.28-8.824 0-16-7.176-16-16s7.176-16 16-16c.92 0 1.808.144 2.688.288l6.696 1.152 2.216-6.424a65 65 0 0 1 2.864-6.896l2.952-6.104-5.536-3.912c-.736-.52-1.472-1.064-2.112-1.696-6.24-6.24-6.24-16.392 0-22.632 6.232-6.232 16.392-6.24 22.608-.024.656.664 1.192 1.4 1.72 2.136l3.912 5.536 6.104-2.952a61 61 0 0 1 6.896-2.864l6.424-2.216-1.152-6.696c-.136-.888-.28-1.776-.28-2.696 0-8.824 7.176-16 16-16s16 7.176 16 16c0 .92-.144 1.808-.288 2.688l-1.152 6.696 6.424 2.216a65 65 0 0 1 6.896 2.864l6.104 2.952 3.912-5.536c.52-.736 1.064-1.472 1.696-2.112 6.232-6.24 16.4-6.224 22.632 0 6.24 6.24 6.24 16.392.024 22.608-.664.656-1.4 1.192-2.136 1.72l-5.536 3.912 2.952 6.104a61 61 0 0 1 2.864 6.896l2.216 6.424 6.696-1.152c.888-.136 1.776-.28 2.696-.28 8.824 0 16 7.176 16 16s-7.176 16-16 16zm1.544-89.536c-11.4-11.392-29.328-12.392-41.848-2.952C277.496 235.984 264.12 224 248 224s-29.496 11.976-31.688 27.504c-12.512-9.416-30.44-8.456-41.848 2.96-11.392 11.392-12.384 29.312-2.952 41.848-12.848 1.816-23.16 11.336-26.368 23.688H48V48h400v272h-97.136c-3.208-12.352-13.512-21.872-26.36-23.688 9.424-12.52 8.44-30.456-2.96-41.848zM480 352H341.008a31.96 31.96 0 0 0 9.856-16H464V32H32v304h113.136a31.95 31.95 0 0 0 9.848 16H16V16h464z"/>
    <path d="M296 64h136v16H296zm-184 48h320v16H112zm-48 32h368v16H64zm0 32h368v16H64zm96 32h16v16h-16zm-96 0h80v16H64zm184 80c-22.056 0-40 17.944-40 40s17.944 40 40 40 40-17.944 40-40-17.944-40-40-40zm0 64c-13.232 0-24-10.768-24-24s10.768-24 24-24 24 10.768 24 24-10.768 24-24 24z"/>
</svg>