<svg xmlns="http://www.w3.org/2000/svg" viewBox="0 0 60 50" aria-label="Refinery icon">
    <title>Refinery icon</title>
    <defs>
        <clipPath id="a" clipPathUnits="userSpaceOnUse">
            <circle cx="141.622" cy="124.801" r="20.463" style="opacity:1;fill:none;fill-opacity:1;stroke:#190119;stroke-width:1.30189;stroke-linecap:round;stroke-linejoin:bevel;stroke-miterlimit:4;stroke-dasharray:none;stroke-dashoffset:0;stroke-opacity:1;paint-order:normal"/>
        </clipPath>
    </defs>
    <g style="display:inline" transform="translate(-28.79 -122.629)">
        <g clip-path="url(#a)" transform="translate(-81.665 24.08)">
            <path d="M103.58 95.904h65.768v61.043H103.58z" style="opacity:1;fill:none;fill-opacity:1;stroke:none;stroke-width:1.5;stroke-linecap:round;stroke-linejoin:bevel;stroke-miterlimit:4;stroke-dasharray:none;stroke-dashoffset:0;stroke-opacity:1;paint-order:normal"/>
            <circle cx="158.242" cy="109.798" r="15.542" style="opacity:1;fill:#ffa448;fill-opacity:1;stroke:none;stroke-width:.1;stroke-linecap:round;stroke-linejoin:bevel;stroke-miterlimit:4;stroke-dasharray:none;stroke-dashoffset:0;stroke-opacity:1;paint-order:normal"/>
            <path d="M141.282 116.694s.1-7.99.034-8.257c.075.134 2.551.047 2.551.047s1.17 5.347 1.735 8.024m.866 4.216 4.208 18.247 2.269 10.162-11.643 2.021-.053-30.345" style="opacity:1;fill:none;stroke:#190119;stroke-width:1.5;stroke-linecap:butt;stroke-linejoin:miter;stroke-miterlimit:4;stroke-dasharray:none;stroke-opacity:1"/>
            <path d="M143.028 108.512c1.153-.067-4.349-.004-4.349-.004s-1.147 5.315-1.737 7.968m-1.002 4.427-4.276 19.126-2.339 10.507 11.977.618" style="opacity:1;fill:none;stroke:#190119;stroke-width:1.5;stroke-linecap:butt;stroke-linejoin:miter;stroke-miterlimit:4;stroke-dasharray:none;stroke-opacity:1"/>
            <path d="m135.552 122.375 5.811 3.355 7.087 2.976-7.134 3.59-8.552 3.355 8.505 4.536 10.725 4.725-2.126 4.583-13.75 1.795-9.449-3.07 3.969-3.639 10.583-4.347 8.694-4.535-8.646-3.544-7.135-3.685 7.276-2.788 5.67-3.118" style="opacity:1;fill:none;stroke:#190119;stroke-width:1.5;stroke-linecap:butt;stroke-linejoin:bevel;stroke-miterlimit:4;stroke-dasharray:none;stroke-opacity:1"/>
            <path d="M133.952 116.694h14.633v4.115h-14.633z" style="opacity:1;fill:#fbfbfb;fill-opacity:1;stroke:#190119;stroke-width:1.50792;stroke-linecap:round;stroke-linejoin:miter;stroke-miterlimit:4;stroke-dasharray:none;stroke-dashoffset:0;stroke-opacity:1;paint-order:normal"/>
        </g>
        <circle cx="59.787" cy="148.624" r="20.231" style="opacity:1;fill:none;fill-opacity:0;stroke:#190119;stroke-width:1.5292;stroke-linecap:round;stroke-linejoin:bevel;stroke-miterlimit:4;stroke-dasharray:none;stroke-dashoffset:0;stroke-opacity:1;paint-order:normal"/>
    </g>
</svg>