<?xml version="1.0" encoding="UTF-8" standalone="no"?>
<svg
   width="359"
   height="309.56"
   version="1.0"
   id="svg1"
   sodipodi:docname="biomejs.svg"
   inkscape:version="1.3.2 (091e20e, 2023-11-25, custom)"
   xmlns:inkscape="http://www.inkscape.org/namespaces/inkscape"
   xmlns:sodipodi="http://sodipodi.sourceforge.net/DTD/sodipodi-0.dtd"
   xmlns="http://www.w3.org/2000/svg"
   xmlns:svg="http://www.w3.org/2000/svg">
  <defs
     id="defs1" />
  <sodipodi:namedview
     id="namedview1"
     pagecolor="#ffffff"
     bordercolor="#000000"
     borderopacity="0.25"
     inkscape:showpageshadow="2"
     inkscape:pageopacity="0.0"
     inkscape:pagecheckerboard="0"
     inkscape:deskcolor="#d1d1d1"
     inkscape:zoom="0.55092737"
     inkscape:cx="412.03253"
     inkscape:cy="245.94893"
     inkscape:window-width="1920"
     inkscape:window-height="1009"
     inkscape:window-x="1912"
     inkscape:window-y="-8"
     inkscape:window-maximized="1"
     inkscape:current-layer="svg1" />
  <path
     id="emblem"
     d="m178.72 0-79.62 137.9c30.212-9.3141 62.713-10.695 94.218-3.2636l26.909 6.3516-25.317 107.35-26.947-6.3514c-20.7-4.8832-42.278-0.0447-58.966 13.148-8.3477 6.6025-14.924 14.892-19.431 24.191l-24.908-12.051c6.3013-13.015 15.514-24.623 27.151-33.835 23.278-18.425 53.628-25.193 82.527-18.374l12.62-53.502c-45.206-10.657-92.848-0.0447-129.27 28.782-36.418 28.824-57.691 72.765-57.691 119.21l357.46 6e-3z"
     fill="#60a5fa"
     stroke-linecap="square"
     stroke-width="27.239"
     style="paint-order:markers fill stroke" />
</svg>
