<svg xmlns="http://www.w3.org/2000/svg" xmlns:xlink="http://www.w3.org/1999/xlink" width="500" zoomAndPan="magnify" viewBox="0 0 375 374.999991" height="500" preserveAspectRatio="xMidYMid meet" version="1.0"><defs><g/></defs><g fill="#000000" fill-opacity="1"><g transform="translate(0.0000045, 219.95582)"><g><path d="M 73.984375 0 L 63.765625 -26.125 L 23.078125 -26.125 L 12.8125 0 L 0.25 0 L 36.703125 -89.3125 L 50.453125 -89.3125 L 86.34375 0 Z M 43.421875 -80.1875 L 42.859375 -78.421875 C 41.796875 -74.910156 40.226562 -70.410156 38.15625 -64.921875 L 26.75 -35.5625 L 60.15625 -35.5625 L 48.6875 -65.046875 C 47.5 -67.960938 46.316406 -71.257812 45.140625 -74.9375 Z M 43.421875 -80.1875 "/></g></g><g transform="translate(86.591136, 219.95582)"><g><path d="M 70.5 0 L 43.671875 -39.046875 L 16.296875 0 L 2.921875 0 L 36.890625 -46.40625 L 5.515625 -89.3125 L 18.890625 -89.3125 L 43.734375 -54.265625 L 67.890625 -89.3125 L 81.265625 -89.3125 L 50.71875 -46.84375 L 83.875 0 Z M 70.5 0 "/></g></g><g transform="translate(173.182268, 219.95582)"><g><path d="M 46.34375 1.265625 C 39.03125 1.265625 32.644531 -0.0625 27.1875 -2.71875 C 21.738281 -5.382812 17.515625 -9.253906 14.515625 -14.328125 C 11.515625 -19.398438 10.015625 -25.441406 10.015625 -32.453125 L 10.015625 -89.3125 L 22.125 -89.3125 L 22.125 -33.46875 C 22.125 -25.3125 24.191406 -19.117188 28.328125 -14.890625 C 32.472656 -10.671875 38.457031 -8.5625 46.28125 -8.5625 C 54.3125 -8.5625 60.554688 -10.75 65.015625 -15.125 C 69.472656 -19.5 71.703125 -25.890625 71.703125 -34.296875 L 71.703125 -89.3125 L 83.734375 -89.3125 L 83.734375 -33.59375 C 83.734375 -26.375 82.203125 -20.140625 79.140625 -14.890625 C 76.078125 -9.648438 71.742188 -5.644531 66.140625 -2.875 C 60.546875 -0.113281 53.945312 1.265625 46.34375 1.265625 Z M 46.34375 1.265625 "/></g></g><g transform="translate(266.936502, 219.95582)"><g><path d="M 86.59375 0 L 86.59375 -59.59375 C 86.59375 -66.1875 86.785156 -72.523438 87.171875 -78.609375 C 85.097656 -71.046875 83.238281 -65.128906 81.59375 -60.859375 L 58.515625 0 L 50.015625 0 L 26.625 -60.859375 L 23.078125 -71.640625 L 20.984375 -78.609375 L 21.171875 -71.5625 L 21.421875 -59.59375 L 21.421875 0 L 10.65625 0 L 10.65625 -89.3125 L 26.5625 -89.3125 L 50.328125 -27.390625 C 51.179688 -24.890625 52 -22.210938 52.78125 -19.359375 C 53.5625 -16.515625 54.078125 -14.457031 54.328125 -13.1875 C 54.660156 -14.875 55.363281 -17.4375 56.4375 -20.875 C 57.519531 -24.320312 58.253906 -26.492188 58.640625 -27.390625 L 81.96875 -89.3125 L 97.5 -89.3125 L 97.5 0 Z M 86.59375 0 "/></g></g></g></svg>